<?xml version="1.0" encoding="iso-8859-1"?>
<!-- Generator: Adobe Illustrator 19.0.0, SVG Export Plug-In . SVG Version: 6.00 Build 0)  -->
<svg version="1.1" id="Layer_1" xmlns="http://www.w3.org/2000/svg" xmlns:xlink="http://www.w3.org/1999/xlink" x="0px" y="0px"
	 viewBox="0 0 512 512" style="enable-background:new 0 0 512 512;" xml:space="preserve">
<g id="XMLID_2107_">
	<g id="XMLID_2108_">
		<path id="XMLID_2111_" style="fill:#E3F4FF;" d="M512,43.242v425.516c0,5.687-4.615,10.302-10.302,10.302H10.302
			C4.615,479.06,0,474.445,0,468.758V43.242C0,37.555,4.615,32.94,10.302,32.94h491.396C507.385,32.94,512,37.555,512,43.242z"/>
		<path id="XMLID_2114_" style="fill:#BDDFF4;" d="M512,43.242v425.516c0,5.687-4.615,10.302-10.302,10.302h-30.565
			c5.687,0,10.302-4.615,10.302-10.302V43.242c0-5.687-4.615-10.302-10.302-10.302h30.565C507.385,32.94,512,37.555,512,43.242z"/>
		<g id="XMLID_2115_">
			<path id="XMLID_2118_" style="fill:#618BAA;" d="M512,43.242v55.187H0V43.242C0,37.555,4.615,32.94,10.302,32.94h491.396
				C507.385,32.94,512,37.555,512,43.242z"/>
		</g>
		<path id="XMLID_2121_" style="fill:#4E7693;" d="M512,43.242v55.187h-30.565V43.242c0-5.687-4.615-10.302-10.302-10.302h30.565
			C507.385,32.94,512,37.555,512,43.242z"/>
		<path id="XMLID_2122_" style="fill:#FDB659;" d="M150.293,32.94v65.489H0V43.242C0,37.555,4.615,32.94,10.302,32.94H150.293z"/>
		<g id="XMLID_2123_">
			<g id="XMLID_2124_">
				<path id="XMLID_2125_" style="fill:#FD8724;" d="M47.878,73.33c-0.013,0-0.024,0-0.037,0l-0.109-0.001
					c-4.267-0.02-7.71-3.495-7.691-7.762c0.02-4.255,3.475-7.691,7.726-7.691c0.012,0,0.024,0,0.036,0l0.109,0.001
					c4.267,0.02,7.71,3.495,7.691,7.762C55.583,69.894,52.128,73.33,47.878,73.33z"/>
			</g>
			<g id="XMLID_2126_">
				<path id="XMLID_2127_" style="fill:#FD8724;" d="M76.22,73.412h-0.109c-4.267,0-7.726-3.459-7.726-7.726
					c0-4.267,3.459-7.726,7.726-7.726h0.109c4.267,0,7.726,3.459,7.726,7.726C83.946,69.953,80.487,73.412,76.22,73.412z"/>
			</g>
			<g id="XMLID_2128_">
				<path id="XMLID_2129_" style="fill:#FD8724;" d="M104.564,73.495c-0.013,0-0.025,0-0.037,0l-0.109-0.001
					c-4.267-0.02-7.71-3.495-7.691-7.762c0.02-4.255,3.475-7.691,7.725-7.691c0.013,0,0.025,0,0.037,0l0.109,0.001
					c4.267,0.02,7.71,3.495,7.691,7.762C112.27,70.059,108.814,73.495,104.564,73.495z"/>
			</g>
		</g>
	</g>
	<g id="XMLID_2130_">
		<g id="XMLID_2131_">
			<g id="XMLID_2132_">
				<path id="XMLID_2750_" style="fill:#43A3F9;" d="M147.831,435.745H61.296c-5.69,0-10.302-4.612-10.302-10.302v-86.535
					c0-5.69,4.612-10.302,10.302-10.302h86.535c5.69,0,10.302,4.612,10.302,10.302v86.535
					C158.133,431.132,153.521,435.745,147.831,435.745z"/>
			</g>
			<g id="XMLID_2133_">
				<path id="XMLID_2137_" style="fill:#2593D6;" d="M93.231,364.138H77.779c-4.267,0-7.726-3.459-7.726-7.726
					c0-4.267,3.459-7.726,7.726-7.726h15.453c4.267,0,7.726,3.459,7.726,7.726C100.958,360.679,97.498,364.138,93.231,364.138z"/>
			</g>
		</g>
		<g id="XMLID_2138_">
			<g id="XMLID_2139_">
				<path id="XMLID_2742_" style="fill:#FDB659;" d="M299.268,435.745h-86.535c-5.69,0-10.302-4.612-10.302-10.302v-86.535
					c0-5.69,4.612-10.302,10.302-10.302h86.535c5.69,0,10.302,4.612,10.302,10.302v86.535
					C309.569,431.132,304.957,435.745,299.268,435.745z"/>
			</g>
			<g id="XMLID_2140_">
				<path id="XMLID_2141_" style="fill:#FD9E28;" d="M244.668,364.138h-15.453c-4.267,0-7.726-3.459-7.726-7.726
					c0-4.267,3.459-7.726,7.726-7.726h15.453c4.267,0,7.726,3.459,7.726,7.726C252.394,360.679,248.935,364.138,244.668,364.138z"/>
			</g>
		</g>
		<g id="XMLID_2142_">
			<g id="XMLID_2143_">
				<path id="XMLID_2737_" style="fill:#FD8724;" d="M450.704,435.745h-86.535c-5.69,0-10.302-4.612-10.302-10.302v-86.535
					c0-5.69,4.612-10.302,10.302-10.302h86.535c5.69,0,10.302,4.612,10.302,10.302v86.535
					C461.006,431.132,456.394,435.745,450.704,435.745z"/>
			</g>
			<g id="XMLID_2144_">
				<path id="XMLID_2145_" style="fill:#E86C10;" d="M396.105,364.138h-15.453c-4.268,0-7.726-3.459-7.726-7.726
					c0-4.267,3.459-7.726,7.726-7.726h15.453c4.268,0,7.726,3.459,7.726,7.726C403.831,360.679,400.372,364.138,396.105,364.138z"/>
			</g>
		</g>
	</g>
	<g id="XMLID_2146_">
		<g id="XMLID_2147_">
			<g id="XMLID_2148_">
				<path id="XMLID_2729_" style="fill:#BDDFF4;" d="M292.056,291.695H61.296c-5.69,0-10.302-4.612-10.302-10.302v-86.535
					c0-5.69,4.612-10.302,10.302-10.302h230.761c5.69,0,10.302,4.612,10.302,10.302v86.535
					C302.358,287.083,297.746,291.695,292.056,291.695z"/>
			</g>
			<g id="XMLID_2149_">
				<path id="XMLID_2153_" style="fill:#93C0D1;" d="M260.808,225.945h-70.739c-4.267,0-7.726-3.459-7.726-7.726
					s3.459-7.726,7.726-7.726h70.739c4.268,0,7.726,3.459,7.726,7.726S265.075,225.945,260.808,225.945z"/>
			</g>
			<g id="XMLID_2154_">
				<path id="XMLID_2157_" style="fill:#93C0D1;" d="M206.208,248.609h-16.139c-4.267,0-7.726-3.459-7.726-7.726
					s3.459-7.726,7.726-7.726h16.139c4.267,0,7.726,3.459,7.726,7.726S210.475,248.609,206.208,248.609z"/>
			</g>
			<g id="XMLID_2158_">
				<path id="XMLID_2161_" style="fill:#93C0D1;" d="M206.208,267.495h-16.139c-4.267,0-7.726-3.459-7.726-7.726
					c0-4.267,3.459-7.726,7.726-7.726h16.139c4.267,0,7.726,3.459,7.726,7.726C213.934,264.036,210.475,267.495,206.208,267.495z"/>
			</g>
		</g>
	</g>
	<g id="XMLID_2162_">
		<g id="XMLID_2163_">
			<path id="XMLID_2166_" style="fill:#93C0D1;" d="M461.006,202.569h-115.38c-4.268,0-7.726-3.459-7.726-7.726
				s3.459-7.726,7.726-7.726h115.38c4.268,0,7.726,3.459,7.726,7.726S465.274,202.569,461.006,202.569z"/>
		</g>
		<g id="XMLID_2167_">
			<path id="XMLID_2170_" style="fill:#93C0D1;" d="M416.365,238.292h-70.739c-4.268,0-7.726-3.459-7.726-7.726
				c0-4.267,3.459-7.726,7.726-7.726h70.739c4.268,0,7.726,3.459,7.726,7.726C424.092,234.833,420.633,238.292,416.365,238.292z"/>
		</g>
		<g id="XMLID_2171_">
			<path id="XMLID_2174_" style="fill:#93C0D1;" d="M416.365,263.713h-70.739c-4.268,0-7.726-3.459-7.726-7.726
				s3.459-7.726,7.726-7.726h70.739c4.268,0,7.726,3.459,7.726,7.726S420.633,263.713,416.365,263.713z"/>
		</g>
		<g id="XMLID_2175_">
			<path id="XMLID_2178_" style="fill:#93C0D1;" d="M416.365,289.134h-70.739c-4.268,0-7.726-3.459-7.726-7.726
				c0-4.267,3.459-7.726,7.726-7.726h70.739c4.268,0,7.726,3.459,7.726,7.726C424.092,285.675,420.633,289.134,416.365,289.134z"/>
		</g>
	</g>
	<g id="XMLID_2179_">
		<g id="XMLID_2180_">
			<path id="XMLID_2183_" style="fill:#93C0D1;" d="M212.389,145.247H50.65c-4.267,0-7.726-3.459-7.726-7.726
				c0-4.267,3.459-7.726,7.726-7.726h161.738c4.267,0,7.726,3.459,7.726,7.726C220.115,141.788,216.656,145.247,212.389,145.247z"/>
		</g>
		<g id="XMLID_2184_">
			<path id="XMLID_2187_" style="fill:#93C0D1;" d="M304.762,145.247h-22.664c-4.268,0-7.726-3.459-7.726-7.726
				c0-4.267,3.459-7.726,7.726-7.726h22.664c4.268,0,7.726,3.459,7.726,7.726C312.488,141.788,309.029,145.247,304.762,145.247z"/>
		</g>
		<g id="XMLID_2191_">
			<g id="XMLID_2189_">
				<path id="XMLID_2190_" style="fill:#93C0D1;" d="M356.958,145.247h-22.664c-4.268,0-7.726-3.459-7.726-7.726
					c0-4.267,3.459-7.726,7.726-7.726h22.664c4.268,0,7.726,3.459,7.726,7.726C364.684,141.788,361.225,145.247,356.958,145.247z"/>
			</g>
		</g>
		<g id="XMLID_2193_">
			<path id="XMLID_2196_" style="fill:#93C0D1;" d="M409.154,145.247H386.49c-4.268,0-7.726-3.459-7.726-7.726
				c0-4.267,3.459-7.726,7.726-7.726h22.664c4.268,0,7.726,3.459,7.726,7.726C416.88,141.788,413.422,145.247,409.154,145.247z"/>
		</g>
		<g id="XMLID_2197_">
			<path id="XMLID_2200_" style="fill:#93C0D1;" d="M461.349,145.247h-22.664c-4.268,0-7.726-3.459-7.726-7.726
				c0-4.267,3.459-7.726,7.726-7.726h22.664c4.268,0,7.726,3.459,7.726,7.726C469.075,141.788,465.617,145.247,461.349,145.247z"/>
		</g>
	</g>
</g>
<g>
</g>
<g>
</g>
<g>
</g>
<g>
</g>
<g>
</g>
<g>
</g>
<g>
</g>
<g>
</g>
<g>
</g>
<g>
</g>
<g>
</g>
<g>
</g>
<g>
</g>
<g>
</g>
<g>
</g>
</svg>
