<?xml version="1.0" encoding="utf-8"?>
<!-- Generator: Adobe Illustrator 27.5.0, SVG Export Plug-In . SVG Version: 6.00 Build 0)  -->
<svg version="1.1" id="Capa_1" xmlns="http://www.w3.org/2000/svg" xmlns:xlink="http://www.w3.org/1999/xlink" x="0px" y="0px"
	 viewBox="0 0 2122 2122" style="enable-background:new 0 0 2122 2122;" xml:space="preserve">
<path style="fill:#E29F8B;" d="M1844.119,1672.494c-8.081-51.14-35.61-97.049-74.635-122.661
	c-52.063-34.17-113.692-32.903-173.19-37.254c-15.573,0.307-31.147-0.008-46.399,2.563c-13.749,2.316-33.189,4.253-55.625,5.63
	l23.61-75.905c17.824,0,30.075,0,30.122,0c55.108,0,111.061-38.913,135.289-92.286h138.32v-655.37v-43.478h-482.324
	c-28.557-8.702-58.104-13.676-88.146-14.229c4.906-3.98,11.033-7.303,13.396-13.505c3.788-0.137,7.13,0.112,10.631-2.207
	c4.524-3.126,3.72-8.714,7.462-12.251c8.735-0.402,16.056-4.548,21.02-13.522c2.653-4.831,0.85-10.373,3.761-15.576
	c1.294-2.373,2.188-4.724,3.023-7.269c1.289,4.239,3.403,8.26,5.274,12.402c0.264,0.519,1.282,0.307,1.272-0.309
	c-0.417-4.633-1.167-9.074-0.794-13.644c0.424-5.006,1.671-9.876,3.04-14.699c2.295,3.432,4.906,6.38,5.084,10.916
	c0.1,2.921-0.599,6.273-0.86,9.262c-0.122,1.316,1.676,1.369,2.131,0.319c2.353-6.073,4.042-7.408,4.505-13.73
	c0.205-1.661-0.721-3.51-1.547-4.96c-2.163-4.168-3.25-8.429-2.511-12.867c3.408-3.513,5.795-7.632,5.905-11.89
	c0.136-5.827-0.512-11.075,5.138-14.935c0.748-0.541,1.493-1.298,2.119-2.056c0.424,1.133,1.106,2.234,1.505,3.345
	c-1.294,1.384-1.824,2.877-1.101,5.605c0.166,0.977,1.072,1.367,1.969,1.223c4.511-0.568,7.381-2.08,7.727-6.76
	c0.37-4.536-4.823-3.101,0.689-9.686c1.011-1.216,2.339-2.685,3.162-4.251c-0.327,1.255-0.405,2.668,0.26,3.632
	c2.76,4.482,0.599,8.699,0.45,13.427c-0.251,6.609,0.777,13.306,1.055,19.99c0.063,2.027,2.909,2.528,3.544,0.55
	c2.422-7.739-0.755-17.106,2.302-24.278c1.464-3.602,1.199-5.749-0.619-9.12c-2.149-3.924,0.885-11.905,0.336-16.779
	c-0.46-4.438-3.245-7.401-5.569-10.772c-0.516-3.691-1.062-7.301,0.036-11.581c0.624-2.302,1.225-4.534,1.815-6.738
	c3.988-2.826,6.606-6.945,9.829-10.955c3.493-4.395,1.374-9.598,2.897-14.638c1.593-5.364-2.171-16.229-3.845-21.154
	c-1.491-4.468-3.367-6.967-6.195-9.206c3.805-7.386,6.085-16.005,6.719-22.18c0.573-6.199-0.29-16.709-3.988-24.411
	c0.58-4.356,0.27-8.94-1.527-13.988c-2.57-7.749-0.093-12.641-4.714-19.936c-0.407-0.617-0.921-1.15-1.425-1.742
	c-0.224-2.546-0.521-5.018-1.155-7.421c-0.896-3.659-3.944-6.09-3.619-10.204c0.251-2.324,0.068-2.47-0.716-4.825l-0.514-1.304
	c0.801,0.784,1.568,1.62,2.438,2.431c3.213,2.974,8.049,5.06,10.716,8.336c1.274,1.74,2.969,5.242,4.528,6.994
	c5.254,6.01,8.85,13.099,14.431,18.718c0.646,0.57,1.554-0.163,1.215-0.925c-4.307-9.732-11.936-17.71-17.729-26.555
	c-2.631-3.973-3.793-2.482-7.639-7.038c-2.663-3.25-5.016-7.854-8.019-10.804c-3.776-3.686-12.314-11.598-20.314-15.162
	c-1.61-4.419-3.372-8.826-5.359-13.123c4.126,2.095,1.771,5.442,4.692,8.923c5.503,6.563,17.337,10.947,24.351,4.027
	c6.536-6.475,6.348-17.054-1.255-23.008c-2.346-1.839-5.691,1.05-4.958,3.645c0.548,1.954,0.573,5.164,0.906,7.252
	c1.115,6.541-10.677,6.151-11.142,0.904c-0.295-2.921-1.194-7.206-4.305-8.635c-3.647-1.674-9.211-4.726-13.981-8.609
	c2.963,0.814,6.007,1.437,9.06,1.589c5.837,0.17,12.614-2.19,13.305-8.811c0.624-6.044-2.328-6.87-5.815-10.543
	c-0.514-0.546-1.42-0.197-1.435,0.563c-0.193,4.136-5.561,3.412-11.23,1.337c1.406,0.124,2.69,0.054,3.922-0.185
	c5.152-1.242,4.85-4.246,7.259-8.753c0.575-1.047,0.745-2.351,0.107-3.4c-0.558-0.906-1.108-1.727-1.639-2.56
	c-1.289-2.08-4.468-1.325-4.638,1.123c-0.587,9.503-17.576,2.334-22.321-1.162c-6.01-4.441-10.465-10.207-15.815-15.347
	c-4.358-4.17-10.005-7.055-15.963-8.733c-0.943-0.599-1.91-1.215-2.894-1.744c-2.012-3.593-4.755-6.711-8.304-8.999
	c-1.141-0.689-2.207-1.476-3.382-2.241c-2.58-3.666-5.988-6.1-9.42-8.694c-3.152-3.742-5.632-7.975-6.45-12.609
	c-0.203-1.311-0.553-2.5-1.016-3.664c3.549-1.325,4.684-5.194,5.883-11.488c0.209-0.711,0.19-1.688-0.529-2.183
	c-3.671-3.172-8.93-4.088-13.681-4.648c-1.157-0.141-1.306,1.428-0.56,1.971c2.935,2.246,5.237,3.057,8.653,4.392
	c4.373,1.774-1.43,6.536-4.755,5.598c-6.519-1.888-13.001-4.232-19.503-6.268c-6.672-1.988-20.122-13.69-27.464-6.96
	c-1.981-2.307-4.375-4.236-7.14-5.478c-5.556-2.463-14.523-3.981-17.457-10.115c-3.588-7.613-0.886-11.98,6.434-15.147
	c1.201-0.57,0.972-2.682-0.322-2.928c-12.543-2.453-16.604,7.52-13.695,18.317c0.405,1.52,1.087,2.923,1.883,4.16
	c-7.079-2.056-15.685-2.414-18.597-9.5c-2.163-5.325-4.998-14.626-12.114-15.281c-14.185-1.318-27.318-3.655-41.203-7.413
	c-1.628-0.385-3.148,0.728-3.52,2.127c-2.08-0.409-4.129-0.794-6.083-1.203c-10.714-2.093-26.794-2.865-40.029,0.999
	c-11.827-2.283-24.843-1.578-34.58,2.563c-11.423,4.889-21.747,2.777-31.937,10.144c-2.375,1.725-4.609,3.359-6.864,4.923
	c-1.243-0.166-2.487-0.29-3.808-0.438c-0.901-0.141-1.023,1.096-0.422,1.59c0.375,0.292,0.804,0.553,1.264,0.811
	c-6.3,4.219-12.458,7.983-19.822,11.077l-0.353,0.38c0.509-2.085,0.144-4.421-1.213-6.965c-0.494-0.906-1.851-0.93-2.382-0.053
	c-2.141,3.366-2.772,6.84-5.091,9.566l-0.843-0.339c-2.29-1.169-4.485-3.172-7.057-3.462l-1.031,0.758
	c-0.599,2.731,1.929,4.758,4.991,6.027c-2.039,1.087-4.253,2.222-5.786,4.027c-3.44-0.509-6.794-1.203-10.553-1.213
	c-1.747,0.044-2.28,2.202-0.938,3.135c3.126,2.214,6.202,3.22,9.24,3.608l0.041,0.69l0.212,1.189
	c-0.831-0.027-1.686-0.005-2.485-0.032c-1.708-1.118-3.408-1.527-5.842-1.557c-4.331-0.083-6.68,4.027-10.77,4.914
	c-4.711,1.065-9.627,0.599-13.613-2.312c-6.845-5.003,1.045-17.771,7.494-11.647c0.477,0.358,1.257-0.166,0.85-0.636
	c-7.031-9.595-24.105,8.448-13.435,16.168c1.42,0.982,2.921,1.888,4.473,2.604c-0.911-0.195-1.917-0.361-2.94-0.767
	c-9.32-3.328-15.218,6.312-19.442,16.421c-7.683,1.454-14.621,4.363-19.025,9.866c-0.89,1.162,0.528,2.994,1.88,2.502
	c4.239-1.42,8.846-2.502,13.7-3.274c-1.335,3.513-2.443,6.502-3.549,8.407c-3.43,1.988-5.047,4.789-8.911,6.436
	c-6.375,2.556-14.743,2.036-21.347,3.735c-1.05,0.255-1.186,1.968-0.073,2.255c6.056,1.462,12.743,0.029,18.619-1.954
	c3.082-0.989,7.43-1.737,9.793-3.971c1.696-1.613,3.338-1.963,4.936-1.791c-0.845,1.591-1.62,3.511-2.777,6.193
	c-2.628,6.002-16.382,6.572-21.254,11.639c-1.413,1.518-2.436,2.733-3.491,3.768c-2.5,0.597-5.06,1.423-7.605,2.599
	c-8.361,3.805-7.347,12.407-14.254,18.979c-7.63,7.281-9.756,16.901-12.407,26.558c-1.267,0.709-2.609,1.442-3.961,2.163
	c-5.691,3.001-6.914,6.411-10.326,11.734c-0.802,1.255,0.904,2.524,1.985,1.573c3.717-3.103,6.789-6.258,10.4-9.081
	c-2.497,7.508-5.106,15.644-5.437,23.703c-5.011,0.916-11.483,4.277-12.984,5.722c-2.804,2.541-4.407,7.951-5.739,12.085
	c-2.378,1.371-4.772,2.643-7.303,3.857c-0.494,0.253-0.373,1.255,0.309,1.184c1.866-0.141,3.616-0.21,5.323-0.241
	c-1.79,4.76-4.046,9.532-5.162,14.57l0.051,0.314c-2.161,1.347-4.363,2.765-6.587,4.35c-4.918,3.391-7.152,7.308-5.508,12.921
	c0.509,1.846,3.325,3.121,4.794,1.337c6.512-8.019,14.911-12.584,22.188-18.792c-0.765,1.917-1.513,3.917-2.17,5.883
	c-1.062,2.711-2.049,5.459-3.094,8.292l-0.56,0.12c-2.468,0.56-5.588,1.289-7.459,3.118c-4.007,3.985-6.19,9.442-12.451,10.682
	c-4.187,0.801-6.867,1.457-10.519,3.547c-0.667,0.397-0.451,1.374,0.336,1.401c8.217,0.139,18.66-0.716,22.75-9.332
	c1.188-2.736,3.459-3.744,5.946-4.339c-0.562,1.494-1.176,3.06-1.71,4.577c-3.608,4.419-8.066,8.185-13.43,13.191
	c-4.802,4.429-5.91,4.835-7.474,11.454c-4.348,18.168-12.937,24.757-10.602,44.151c0.819,6.657,6.039,10.918,11.652,14.007
	c0.046,2.799,1.184,5.537,2.794,8.292c-1.362,2.012-2.518,4.18-3.335,6.482c-3.148,8.402-6.453,18.538-5.584,27.6
	c0.107,1.615,2.702,2.383,3.092,0.502c2.282-10.358,2.399-21.951,7.968-31.249c2.244,3.237,4.695,6.477,6.061,9.544
	c-0.714,3.484-1.6,6.811-1.698,10.215c-0.275,8.972-0.86,24.377-6.786,31.42c-0.397,0.421-0.068,1.325,0.607,1.074
	c6.317-2.036,11.8-5.678,15.254-10.809c-0.227,1.954-0.287,3.834,0.141,5.586c0.499,1.834,0.885,3.547,1.262,5.237
	c-0.648,0.59-1.301,1.155-2.012,1.659c-1.607,1.228-5.478,3.101-6.648,5.016c-1.099,1.686-0.875,3.642-0.592,5.535
	c0.694,4.333-1.735,7.342-3.158,11.043c-0.462,1.145,1.075,1.885,1.908,1.174c2.163-1.827,5.125-5.812,5.447-8.635
	c0.456-3.823,0.495-6.49,4.002-8.928c0.616-0.47,1.286-0.974,2.042-1.469c1.026,6.699,0.896,12.719-0.685,21.242
	c-2.132,11.286-5.7,26.367,1.14,36.506l0.258,0.663c2.845,5.23,6.842,10.234,4.852,16.599l0.353,0.168
	c1.518-2.95,1.449-5.944,1.659-9.247c0.098-1.181-0.214-2.451-0.809-3.537c-2.353-4.336,1.001-6.367,4.095-8.592
	c2.848-2.163,5.891-4.439,6.207-8.236c0.046-0.617,0.078-1.23,0.095-1.881l0.178,0.651c3.172,11.793,3.812,26.102,12.053,34.504
	c-2.134,3.603-2.999,7.761-1.8,12.541c0.952,3.9,3.167,1.625,0.904,5.781c-0.667,1.062-1.072,2.326-1.089,3.629
	c-0.304,2.809-0.114,5.016,1.306,7.591c1.766,3.189,8.521,6.051,3.83,10.406c-0.789,0.651-0.88,1.951-0.901,2.833
	c-0.066,3.703,3.539,7.342,3.454,11.695c-0.007,0.47,0.704,0.643,0.841,0.124c0.287-1.074,1.372-14.704-0.005-13.547
	c3.148-2.587,2.69-5.7,2.334-9.476c-0.422-4.392,6.938-6.497,9.369-10.787c1.832-3.182,1.678-6.921,0.409-10.314
	c4.495,3.001,8.144,6.643,11.418,10.667c0.012,2.122-0.302,4.283-0.68,6.187c-0.546,2.339-1.42,5.435-0.86,7.837
	c1.676,6.507,9.971,10.119,13.615,15.569c0.244,0.473,0.653,0.955,1.016,1.476c0.2,0.639,0.358,1.328,0.585,1.908
	c0.366,0.908,0.753,1.841,1.16,2.794c-4.794,0.351-9.591,0.78-14.385,1.296c-28.434,3.138-56.582,9.469-83.31,20.387
	c-15.41,6.273-30.253,14.053-44.411,23.644c-70.835,47.975-137.85,104.64-170.425,189.231
	c-42.46,110.247-63.89,225.333-99.56,337.278c-35.983,112.917,37.156,232.405,142.259,232.405h26.74l29.573,95.076
	c-50.793-3.44-103.409,2.309-153.548,7.758c-50.095,5.443-102.491,19.754-149.12,44.833c-41.04,22.07-52.509,70.18-54.592,125.387
	c-0.85,22.624-2.684,43.317,0.331,62.63l-0.031,0.044c5.213,43.561,41.413,83.549,65.843,108.152
	c41.988,42.285,82.623,79.054,136.737,88.038c28.078,4.66,55.239,2.653,83.327,0.533c26.455-1.993,52.061,4.772,78.092,1.52
	c35.257-4.402,71.037-12.702,105.863-23.091c13.369,4.241,26.842,7.815,40.414,10.312c24.255,4.46,48.715,9.666,73.234,13.566
	c-0.836,1.525-1.622,3.087-2.351,4.687c-4.022,8.828-11.445,26.996-2.711,36.17c2.923,3.069,9.781,2.46,15.583-0.2l0.073,0.68
	c11.023,9.033,26.448,3.781,37.252-3.496l0.777-0.485c0.655,0.052,1.527-0.363,2.765-0.295c9.62,0.509,19.422-4.392,28.596-7.254
	c10.731-3.352,20.453-3.113,31.386-2.716c10.314,0.375,20.631-1.072,30.906-2.139c10.546-1.092,20.816-4.239,30.972-7.834
	c8.841-3.128,18.332-5.664,25.747-13.142c4.645-4.685,10.051-8.093,15.298-11.422c10.589-6.719,28.319-6.441,51.785-1.859
	c-3.489,17.469-5.257,35.235-4.938,53.249c18.429,2.405,37.167,3.269,53.698,0.227c25.189-4.631,51.934-10.387,77.142-12.229
	c35.961-2.626,70.672,0.204,106.465-7.995c31.736-7.269,62.949-13.452,94.891-19.468c39.405-7.42,79.341-9.515,119.11-12.743
	c20.358-1.652,40.711-3.584,60.95-6.675c11.807-1.805,23.932-2.232,35.539-5.532c8.214-2.334,15.596-6.84,23.001-11.335
	c3.69-2.239,7.386-4.475,11.196-6.436c22.582-11.634,45.164-21.62,65.056-39.13c21.686-19.088,38.709-45.166,51.6-72.818
	c0.336-0.718,0.67-1.442,1.001-2.168C1841.59,1780.717,1852.386,1724.815,1844.119,1672.494z M1354.352,496.746
	c0.349-0.807,0.57-1.664,0.697-2.519c0.765,3.849,0.723,7.744-1.142,12.192C1354.549,502.802,1354.659,499.667,1354.352,496.746z
	 M1353,372.108c-0.434-2.57-0.752-5.164-1.055-7.771c2.129,2.853,4.109,5.727,4.797,9.6c0.122,0.436,0.2,1.026,0.331,1.715
	c-0.784,1.905-1.751,3.771-2.767,5.722C1353.955,378.238,1353.521,375.127,1353,372.108z M1355.862,401.005
	c-0.341-5.754-0.743-11.569-1.34-17.3c1.038-1.856,2.024-3.625,2.953-5.481c0.592,4.56,1.267,10.689,0.884,13.259
	C1357.879,394.785,1356.966,397.945,1355.862,401.005z M1360.422,442.985c-1.077,2.663,1.654,7.349,0.322,9.31l-1.033,1.291
	c0.373-3.15,0.524-6.322,0.024-9.822c-1.116-9.481-2.336-18.775-2.972-28.28l0.405-0.76
	C1361.126,423.551,1363.397,435.463,1360.422,442.985z M1351.1,332.852c0.94,4.838,1.883,9.715,1.968,14.901
	c-0.027,0.568,0.831,0.57,0.882,0.003c0.161-1.41,0.282-2.833,0.356-4.258c0.185,1.993,0.412,3.922,1.186,5.396
	c2.356,4.047,3.579,7.751,4.097,11.203c-2.2-2.791-4.991-4.741-8.526-5.218c-0.674-8.87-1.413-17.664-3.69-26.367
	C1348.683,329.841,1349.938,331.293,1351.1,332.852z M1344.274,313.04c0.073,4.102,4.407,7.201,5.179,11.145
	c-1.308-0.76-2.658-1.428-4.071-1.903c-2.94-7.919-7.177-15.444-10.553-23.269C1339.616,302.74,1343.975,306.694,1344.274,313.04z
	 M757.741,438.863l-0.088-0.348l0.314,0.146L757.741,438.863z M761.768,447.15c-1.021-1.403-1.898-2.901-2.565-4.411
	c1.287-1.888,2.563-3.84,3.846-5.756c0,0.545-0.007,1.038,0.022,1.617c-0.952,3.99,0.181,6.394,0.205,10.809
	C762.871,448.698,762.389,448.032,761.768,447.15z M764.213,382.74c-0.606,8.285-1.003,16.621-1.171,24.967
	c-0.176,5.561-0.265,11.026-0.198,16.587c-0.083,2.592,0.005,5.15,0.093,7.671c-0.77,1.096-1.552,2.122-2.314,3.179
	c-1.203-1.739-2.307-3.405-3.264-5.108c0.275-1.929,0.772-3.895,1.43-5.919c3.218-9.922,0.09-20.977,1.766-31.432
	c0.709-4.39,2.146-8.621,3.949-12.609C764.418,380.954,764.24,381.836,764.213,382.74z M764.852,376.744
	c-2.78,4.794-4.979,9.783-6.346,15.318c-2.655,10.826-0.653,22.253-3.769,32.875c-9.337-20.792-2.502-38.908,11.279-54.509
	C765.57,372.525,765.134,374.635,764.852,376.744z M779.704,534.022c0.551-4.307,1.097-8.48,1.61-12.735
	c0.836,2.762,1.739,5.564,2.548,8.365C782.138,530.986,780.783,532.431,779.704,534.022z M787.755,309.247
	c-5.342,8.541-12.066,13.157-19.391,17.844c1.52-2.348,1.856-5.242,3.486-7.881c1.065-1.734,1.968-3.554,2.848-5.386
	c3.05-0.426,6.071-1.337,9.062-3.9c1.649-1.418,3.067-1.849,4.356-1.725L787.755,309.247z M790.841,301.388
	c-1.659-0.221-3.325-0.2-4.896,0.037c-2.826,0.489-4.952,1.98-7.064,3.591c2.375-4.156,5.783-6.451,10.246-8.431
	c0.658-0.241,1.257-0.431,1.905-0.551c0.061,0.88,0.129,1.786,0.251,2.69l0.407,0.641
	C791.412,300.051,791.095,300.738,790.841,301.388z M1269.315,619.59c-1.316,0.466-2.514,1.152-3.64,1.849
	c0.292-1.834,0.356-3.666,0.19-5.476c2.129-1.891,4.377-3.742,6.609-5.462c0.451,0.085,0.882,0.134,1.338,0.234
	C1272.423,613.795,1272.396,618.389,1269.315,619.59z M1275.963,608.011l-0.178-0.073l1.15-0.804L1275.963,608.011z
	 M1295.907,590.845c4.816-5.852,7.956-12.334,10.662-18.962c-1.376,6.112-4.986,11.761-5.413,18.77
	c-0.526,9.216-7.776,14.614-15.861,16.599c0.689-2.402,0.872-5.186,1.321-7.418C1289.848,597.151,1293.068,594.216,1295.907,590.845
	z M1290.07,221.284l0.458,0.446c-0.989-0.051-1.917,0.022-2.814,0.044c-1.06-2.041-2.049-4.095-2.923-6.231
	C1286.752,217.608,1288.584,219.567,1290.07,221.284z M1230.419,172.691c0.604,1.471,1.347,2.969,2.219,4.377
	c-2.926-1.6-5.807-3.345-8.475-5.298c-1.963-1.33-3.737-2.88-5.488-4.404C1223.303,168.371,1227.849,166.958,1230.419,172.691z
	 M1201.423,148.023l0.219,0.122c-0.68,0.024-1.296-0.024-2.017,0.068l-0.738,0.356c-0.685-0.575-1.391-1.194-2.2-1.72
	C1198.37,146.854,1199.998,147.073,1201.423,148.023z M1055.699,104.345c-0.504,0.142-0.945,0.19-1.422,0.351l-0.339-0.236
	C1054.535,104.438,1055.114,104.367,1055.699,104.345z M1044.14,106.052c1.715-0.068,3.389-0.017,4.943,0.107
	c-5.306,1.605-10.29,3.584-14.811,5.973c-2.484,1.352-4.733,3.079-6.94,4.906c-1.552,0.141-3.006,0.373-4.514,0.509
	C1029.612,112.981,1035.963,107.982,1044.14,106.052z M993.958,114.035c7.778-0.312,15.786-4.448,23.479-5.766
	c0.855-0.19,1.796-0.327,2.757-0.443c-2.263,2.489-3.941,5.527-4.938,8.991c-4.989-1.289-10.711-0.833-15.593,0.465
	c-5.328,1.32-10.59-0.711-15.946-0.772C986.976,115.112,990.296,114.196,993.958,114.035z M971.483,123.538
	c4.621,1.578,9.422,2.658,14.443,4.1c-2.146,0.801-4.385,1.654-6.546,2.475c-5.705-0.678-11.53-0.029-16.919,2.699
	c-4.141,2.078-8.209,3.067-12.375,3.747c-0.658-1.045-1.598-1.813-2.565-2.456C956.311,133.889,963.795,128.652,971.483,123.538z
	 M939.413,131.472l0.351,0.833l-0.816,0.041L939.413,131.472z M935.133,136.547c2.789,0.007,5.399,0.11,7.668,0.899
	c-3.159,0.373-6.353,0.721-9.617,1.425c-0.636,0.12-1.257,0.166-1.808,0.256C932.701,138.369,933.954,137.497,935.133,136.547z
	 M925.253,144.559c5.084-0.417,10.253-1.642,15.727-1.225c-3.422,1.06-6.95,2.095-10.343,3.252c-1.866-0.029-3.74-0.056-5.581-0.105
	C925.082,145.765,925.108,145.102,925.253,144.559z M876.736,160.225c0.733-0.572,12.94-0.755,15.211-0.848
	c8.092-0.336,14.253-5.72,21.678-7.674l0.853,0.833c-2.563,1.043-5.123,2.251-7.559,3.523c-6.548,3.41-12.567,7.457-18.251,12.031
	c-5.832-0.061-12.548-0.124-19.118,0.572C871.494,165.46,873.808,162.568,876.736,160.225z M865.029,181.343
	c0.185-1.164,0.565-2.351,0.845-3.586c4.239-0.516,8.64-0.838,12.853-1.111c-2.029,1.966-4.047,3.959-6.046,5.973
	c-1.277,0.258-2.531,0.682-3.749,1.32c-1.569,0.829-2.711,1.567-3.808,2.275c-0.558-0.193-0.999-0.29-1.53-0.407
	C864.315,184.736,864.727,183.436,865.029,181.343z M847.226,210.144l-1.104,1.191c-0.477,0.046-0.784,0.119-1.333,0.141
	C845.577,210.973,846.371,210.503,847.226,210.144z M799.935,280.614c0.75-5.535,1.335-11.142,2.587-16.46l0.19-0.639
	c3.179-1.875,6.492-3.905,9.384-6.372C807.753,264.782,803.726,272.66,799.935,280.614z M817.602,245.696
	c-3.875,5.481-8.372,9.135-13.372,12.285c2.858-8.763,6.836-15.364,12.672-24.073c2.631-3.863,4.085-7.143,5.871-9.817l0.383,0.002
	c4.643-1.135,11.754-1.591,14.821-5.912c0.728-1.025,1.503-1.89,2.239-2.721c0.894-0.144,1.762-0.287,2.616-0.38
	c-3.172,3.635-6.229,7.284-9.286,10.931c-1.316,0.614-2.638,1.188-3.897,1.922C823.214,231.596,821.48,240.168,817.602,245.696z
	 M843.409,628.199c-5.087-5.406-9.679-11.758-8.548-16.017c0.241-0.782,0.343-1.542,0.524-2.446
	c2.791,4.024,5.44,8.239,8.302,12.565C843.35,624.133,843.299,626.123,843.409,628.199z M853.633,637.415
	c-1.688-1.208-4.38-3.484-7.247-6.266c-0.572-1.956-0.826-3.946-0.806-6.01c0.846,1.113,1.71,2.334,2.548,3.518
	c3.091,4.214,6.531,7.898,10.265,11.264l-0.889,0.042C856.181,639.171,854.88,638.328,853.633,637.415z"/>
<path style="fill:#39242B;" d="M1844.119,1672.494c-8.081-51.14-35.61-97.049-74.635-122.661
	c-52.063-34.17-113.692-32.903-173.19-37.254c-15.573,0.307-31.147-0.008-46.399,2.563c-13.749,2.316-33.189,4.253-55.625,5.63
	l-81.717,262.697h-230.597h-140.052H708.767l-75.756-243.525c-50.793-3.44-103.409,2.309-153.548,7.758
	c-50.095,5.443-102.491,19.754-149.12,44.833c-41.04,22.07-52.509,70.18-54.592,125.387c-0.85,22.624-2.684,43.317,0.331,62.63
	l-0.031,0.044c5.213,43.561,41.413,83.549,65.843,108.152c41.988,42.285,82.623,79.054,136.737,88.038
	c28.078,4.66,55.239,2.653,83.327,0.533c26.455-1.993,52.061,4.772,78.092,1.52c35.257-4.402,71.037-12.702,105.863-23.091
	c13.369,4.241,26.842,7.815,40.414,10.312c24.255,4.46,48.715,9.666,73.234,13.566c3.924-7.152,8.942-13.434,14.268-18.638
	c7.613-7.442,16.653-12.94,23.788-21.135c6.261-7.191,10.412-17.086,16.387-24.668c10.08-12.791,23.776-14.611,37.047-17.391
	c26.441-5.537,52.753-4.468,76.44-17.64c0.787-0.438,1.573-0.891,2.356-1.364c5.773-3.471,11.383-7.847,16.794-13.43
	c8.007-8.263,16.394-16.143,24.655-23.973c12.338-11.693,25.43-24.959,40.713-28.945c12.704-3.313,23.508,2.263,34.66,9.608
	c6.563,4.321,13.237,8.886,19.744,13.537c4.443,3.174,8.982,6.202,13.612,8.872c-7.698,11.712-15.161,23.593-21.812,36.411
	c-14.887,28.699-26.414,58.609-32.575,89.449c-3.489,17.469-5.257,35.235-4.938,53.249c18.429,2.405,37.167,3.269,53.698,0.227
	c25.189-4.631,51.934-10.387,77.142-12.229c35.961-2.626,70.672,0.204,106.465-7.995c31.736-7.269,62.949-13.452,94.891-19.468
	c39.405-7.42,79.341-9.515,119.11-12.743c20.358-1.652,40.711-3.584,60.95-6.675c11.807-1.805,23.932-2.232,35.539-5.532
	c8.214-2.334,15.596-6.84,23.001-11.335c3.69-2.239,7.386-4.475,11.196-6.436c22.582-11.634,45.164-21.62,65.056-39.13
	c21.686-19.088,38.709-45.166,51.6-72.818c0.336-0.718,0.67-1.442,1.001-2.168
	C1841.59,1780.717,1852.386,1724.815,1844.119,1672.494z"/>
<polygon style="fill:#FFEDD5;" points="1272.197,697.209 1272.197,1321.503 1272.197,1336.032 1272.197,1352.58 1324.883,1352.58 
	1271.461,1488.042 1474.799,1352.58 1546.589,1352.58 1683.291,1352.58 1821.612,1352.58 1821.612,697.209 "/>
<path style="fill:#CB766A;" d="M995.356,1802.79c4.456,12.782,9.174,25.415,14.195,37.766c5.493,13.523,11.554,26.672,17.941,39.6
	c0.787-0.438,1.573-0.891,2.356-1.364c5.773-3.471,11.383-7.847,16.794-13.43c8.007-8.263,16.394-16.143,24.655-23.973
	c12.338-11.693,25.43-24.959,40.713-28.945c12.704-3.313,23.508,2.263,34.66,9.608c6.563,4.321,13.237,8.886,19.744,13.537
	c4.443,3.174,8.982,6.202,13.612,8.872c6.266-9.53,12.684-18.95,18.948-28.672c1.113-1.727,2.258-3.549,3.401-5.367
	c1.995-0.256,3.983-0.56,5.959-0.921l-0.621-0.509c-9.659-7.922-17.83-15.259-25.756-25.525h-140.052
	C1028.91,1790.447,1011.644,1796.978,995.356,1802.79z"/>
<path style="fill:#39242B;" d="M853.633,637.415c-1.688-1.208-4.38-3.484-7.247-6.266c-0.572-1.956-0.826-3.946-0.806-6.01
	c0.846,1.113,1.71,2.334,2.548,3.518c3.091,4.214,6.531,7.898,10.265,11.264c6.935-0.319,13.863-0.472,20.782-0.472h12.743
	c-8.324-14.232-14.699-43.276-19.5-75.77c-5.759,2.928-13.605,1.578-17.87-5.515c-2.986-4.967-4.107-11.608-5.99-17.028
	c-2.65-7.632-6.874-14.777-10.214-22.187c-5.198-11.535-19.22-55.196,4.758-58.969c6.509-1.025,12.207,0.339,17.103,3.162
	c0.745,2.49,1.364,5.043,1.841,7.676c-0.068-0.365,18.361-10.677,20.188-12.073c5.51-4.212,11.89-9.788,15.771-15.559
	c10.918-16.246,15.298-37.391,25.771-54.319c1.208-1.946,2.648-3.778,4.168-5.569c0.129,0.612,0.334,1.138,0.656,1.513
	c0.348,0.46,9.422,35.184,9.461,35.099c-3.671,7.296-3.347,7.581,3.774,13.028c3.902,3.05-10.036,9.986-11.542,13.622
	c-4.073,9.498,24.421,0.158,6.702,15.973l0.424,0.222c1.89-1.557,10.94-6.502,8.222-9.683c-3.316-3.868-16.485-6.96-1.574-12.227
	c3.235-1.145,5.914-5.028,4.024-7.262c-7.53-8.838-2.049-13.335-0.524-22.085c1.452-8.507-7.371-10.266-1.927-20.266
	c3.342-6.08-8.431-9.834-3.269-17.746c1.686-2.57,2.4-5.303,2.348-8.041c0.996-1.257,1.932-2.536,2.743-3.858
	c2.75-4.488,1.824-8.782,0.672-13.106c10.826-1.25,22.748-7.174,32.66-1.981c5.586,2.918,9.213,6.256,17.008,6.531
	c5.493,0.163,10.363-1.819,15.746-2.012c17.693-0.821,26.09,11.946,44.913,9.688c7.618-0.913,13.177-1.559,19.267,2.026
	c3.471,2.052,5.842,4.902,7.671,7.747c1.055,1.625,1.503,5.746,3.79,6.777c4.536,2.212,15.852-2.383,22.258-3.639
	c1.16,6.134,1.817,12.699,6.085,16.387c0.02-0.003-6.729,17.191-3.181,21.349c0.446,0.58,11.934,44.548,11.981,44.436
	c-4.646,9.24-4.239,9.6,4.781,16.494c4.943,3.864-12.708,12.646-14.618,17.25c-5.155,12.026,30.923,0.199,8.485,20.224l0.541,0.28
	c2.392-1.968,13.851-8.229,10.411-12.26c-4.202-4.896-20.872-8.811-1.995-15.478c4.095-1.452,7.488-6.365,5.094-9.194
	c-7.004-8.222-5.118-13.476-2.858-20.078c0.943,0.499,1.924,0.84,2.933,1.011c2.528,0.429,5.362,0.563,8.441,0.485
	c2.017,11.554,3.021,24.358-0.843,33.759l0.882,0.317c5.311-4.631,6.787-9.07,4.694-14.346c-3.154-7.849,6.19-14.39,6.699-20.711
	c4.787-0.614,9.907-1.447,15.227-2.299c0.719,4.046,1.164,8.088,0.904,12.161c-0.599,10.212-3.956,15.89-1.552,25.6
	c2.153,8.723,9.715,17.605,9.369,26.796c-1.951-1.194-4.158-1.866-6.497-1.866c-7.958,0-14.409,7.781-14.409,17.379
	c0,9.6,6.45,17.381,14.409,17.381c7.956,0,14.407-7.781,14.407-17.381c0-6.049-2.562-11.374-6.448-14.487
	c1.047-3.425,1.41-7.191,0.163-10.139c-4.475-10.716-9.116-18.401-1.515-29.452c3.186-4.499,4.083-6.319,5.554-12.316
	c1.345-5.355,1.64-10.697,1.606-16.054c2.361-0.3,4.733-0.572,7.108-0.797c-1.603,5.355-3.201,12.585-1.065,15.089
	c0.443,0.582,11.934,44.548,11.98,44.436c-4.648,9.24-4.239,9.6,4.78,16.497c4.941,3.864-12.711,12.643-14.616,17.247
	c-5.157,12.026,30.921,0.2,8.485,20.224l0.541,0.282c2.392-1.971,13.849-8.231,10.409-12.263c-4.2-4.896-20.872-8.811-1.995-15.478
	c4.098-1.452,7.486-6.365,5.094-9.194c-9.527-11.186-2.599-16.882-0.663-27.951c1.101-6.293-3.442-9.856-4.409-15.545
	c-0.974-5.729,1.674-12.358,2.626-18.116c0.309-1.854,1.228-6.39,1.715-11.279c11.764,5.759,19.037,15.284,19.037,15.284
	c-2.193-6.09-10.066-14.747-18.728-21.537c-0.007-0.555-0.027-1.101-0.059-1.634c2.887,1.639,6.31,2.909,8.872,5.04
	c8.044,6.692,15.973,18.103,21.551,26.814c1.023-4.638,5.016-9.555,10.11-12.755c3.362-1.966,7.103-3.242,11.232-3.525l0.044-0.003
	l0.003-0.003c1.91-0.127,3.9-0.044,5.973,0.282c23.978,3.774,9.956,47.434,4.755,58.969c-3.34,7.41-7.564,14.555-10.214,22.187
	c-1.88,5.42-3.003,12.061-5.99,17.028c-4.265,7.094-12.112,8.443-17.868,5.515c-4.804,32.496-11.176,61.539-19.503,75.77h16.114
	c1.876,0,3.752,0.019,5.627,0.053c4.906-3.98,11.033-7.303,13.396-13.505c3.788-0.137,7.13,0.112,10.631-2.207
	c4.524-3.126,3.72-8.714,7.462-12.251c8.735-0.402,16.056-4.548,21.02-13.522c2.653-4.831,0.85-10.373,3.761-15.576
	c1.294-2.373,2.188-4.724,3.023-7.269c1.289,4.239,3.403,8.26,5.274,12.402c0.264,0.519,1.282,0.307,1.272-0.309
	c-0.417-4.633-1.167-9.074-0.794-13.644c0.424-5.006,1.671-9.876,3.04-14.699c2.295,3.432,4.906,6.38,5.084,10.916
	c0.1,2.921-0.599,6.273-0.86,9.262c-0.122,1.316,1.676,1.369,2.131,0.319c2.353-6.073,4.042-7.408,4.505-13.73
	c0.205-1.661-0.721-3.51-1.547-4.96c-2.163-4.168-3.25-8.429-2.511-12.867c3.408-3.513,5.795-7.632,5.905-11.89
	c0.136-5.827-0.512-11.075,5.138-14.935c0.748-0.541,1.493-1.298,2.119-2.056c0.424,1.133,1.106,2.234,1.505,3.345
	c-1.294,1.384-1.824,2.877-1.101,5.605c0.166,0.977,1.072,1.367,1.969,1.223c4.511-0.568,7.381-2.08,7.727-6.76
	c0.37-4.536-4.823-3.101,0.689-9.686c1.011-1.216,2.339-2.685,3.162-4.251c-0.327,1.255-0.405,2.668,0.26,3.632
	c2.76,4.482,0.599,8.699,0.45,13.427c-0.251,6.609,0.777,13.306,1.055,19.99c0.063,2.027,2.909,2.528,3.544,0.55
	c2.422-7.739-0.755-17.106,2.302-24.278c1.464-3.602,1.199-5.749-0.619-9.12c-2.149-3.924,0.885-11.905,0.336-16.779
	c-0.46-4.438-3.245-7.401-5.569-10.772c-0.516-3.691-1.062-7.301,0.036-11.581c0.624-2.302,1.225-4.534,1.815-6.738
	c3.988-2.826,6.606-6.945,9.829-10.955c3.493-4.395,1.374-9.598,2.897-14.638c1.593-5.364-2.171-16.229-3.845-21.154
	c-1.491-4.468-3.367-6.967-6.195-9.206c3.805-7.386,6.085-16.005,6.719-22.18c0.573-6.199-0.29-16.709-3.988-24.411
	c0.58-4.356,0.27-8.94-1.527-13.988c-2.57-7.749-0.093-12.641-4.714-19.936c-0.407-0.617-0.921-1.15-1.425-1.742
	c-0.224-2.546-0.521-5.018-1.155-7.421c-0.896-3.659-3.944-6.09-3.619-10.204c0.251-2.324,0.068-2.47-0.716-4.825l-0.514-1.304
	c0.801,0.784,1.568,1.62,2.438,2.431c3.213,2.974,8.049,5.06,10.716,8.336c1.274,1.74,2.969,5.242,4.528,6.994
	c5.254,6.01,8.85,13.099,14.431,18.718c0.646,0.57,1.554-0.163,1.215-0.925c-4.307-9.732-11.936-17.71-17.729-26.555
	c-2.631-3.973-3.793-2.482-7.639-7.038c-2.663-3.25-5.016-7.854-8.019-10.804c-3.776-3.686-12.314-11.598-20.314-15.162
	c-1.61-4.419-3.372-8.826-5.359-13.123c4.126,2.095,1.771,5.442,4.692,8.923c5.503,6.563,17.337,10.947,24.351,4.027
	c6.536-6.475,6.348-17.054-1.255-23.008c-2.346-1.839-5.691,1.05-4.958,3.645c0.548,1.954,0.573,5.164,0.906,7.252
	c1.115,6.541-10.677,6.151-11.142,0.904c-0.295-2.921-1.194-7.206-4.305-8.635c-3.647-1.674-9.211-4.726-13.981-8.609
	c2.963,0.814,6.007,1.437,9.06,1.589c5.837,0.17,12.614-2.19,13.305-8.811c0.624-6.044-2.328-6.87-5.815-10.543
	c-0.514-0.546-1.42-0.197-1.435,0.563c-0.193,4.136-5.561,3.412-11.23,1.337c1.406,0.124,2.69,0.054,3.922-0.185
	c5.152-1.242,4.85-4.246,7.259-8.753c0.575-1.047,0.745-2.351,0.107-3.4c-0.558-0.906-1.108-1.727-1.639-2.56
	c-1.289-2.08-4.468-1.325-4.638,1.123c-0.587,9.503-17.576,2.334-22.321-1.162c-6.01-4.441-10.465-10.207-15.815-15.347
	c-4.358-4.17-10.005-7.055-15.963-8.733c-0.943-0.599-1.91-1.215-2.894-1.744c-2.012-3.593-4.755-6.711-8.304-8.999
	c-1.141-0.689-2.207-1.476-3.382-2.241c-2.58-3.666-5.988-6.1-9.42-8.694c-3.152-3.742-5.632-7.975-6.45-12.609
	c-0.203-1.311-0.553-2.5-1.016-3.664c3.549-1.325,4.684-5.194,5.883-11.488c0.209-0.711,0.19-1.688-0.529-2.183
	c-3.671-3.172-8.93-4.088-13.681-4.648c-1.157-0.141-1.306,1.428-0.56,1.971c2.935,2.246,5.237,3.057,8.653,4.392
	c4.373,1.774-1.43,6.536-4.755,5.598c-6.519-1.888-13.001-4.232-19.503-6.268c-6.672-1.988-20.122-13.69-27.464-6.96
	c-1.981-2.307-4.375-4.236-7.14-5.478c-5.556-2.463-14.523-3.981-17.457-10.115c-3.588-7.613-0.886-11.98,6.434-15.147
	c1.201-0.57,0.972-2.682-0.322-2.928c-12.543-2.453-16.604,7.52-13.695,18.317c0.405,1.52,1.087,2.923,1.883,4.16
	c-7.079-2.056-15.685-2.414-18.597-9.5c-2.163-5.325-4.998-14.626-12.114-15.281c-14.185-1.318-27.318-3.655-41.203-7.413
	c-1.628-0.385-3.148,0.728-3.52,2.127c-2.08-0.409-4.129-0.794-6.083-1.203c-10.714-2.093-26.794-2.865-40.029,0.999
	c-11.827-2.283-24.843-1.578-34.58,2.563c-11.423,4.889-21.747,2.777-31.937,10.144c-2.375,1.725-4.609,3.359-6.864,4.923
	c-1.243-0.166-2.487-0.29-3.808-0.438c-0.901-0.141-1.023,1.096-0.422,1.59c0.375,0.292,0.804,0.553,1.264,0.811
	c-6.3,4.219-12.458,7.983-19.822,11.077l-0.353,0.38c0.509-2.085,0.144-4.421-1.213-6.965c-0.494-0.906-1.851-0.93-2.382-0.053
	c-2.141,3.366-2.772,6.84-5.091,9.566l-0.843-0.339c-2.29-1.169-4.485-3.172-7.057-3.462l-1.031,0.758
	c-0.599,2.731,1.929,4.758,4.991,6.027c-2.039,1.087-4.253,2.222-5.786,4.027c-3.44-0.509-6.794-1.203-10.553-1.213
	c-1.747,0.044-2.28,2.202-0.938,3.135c3.126,2.214,6.202,3.22,9.24,3.608l0.041,0.69l0.212,1.189
	c-0.831-0.027-1.686-0.005-2.485-0.032c-1.708-1.118-3.408-1.527-5.842-1.557c-4.331-0.083-6.68,4.027-10.77,4.914
	c-4.711,1.065-9.627,0.599-13.613-2.312c-6.845-5.003,1.045-17.771,7.494-11.647c0.477,0.358,1.257-0.166,0.85-0.636
	c-7.031-9.595-24.105,8.448-13.435,16.168c1.42,0.982,2.921,1.888,4.473,2.604c-0.911-0.195-1.917-0.361-2.94-0.767
	c-9.32-3.328-15.218,6.312-19.442,16.421c-7.683,1.454-14.621,4.363-19.025,9.866c-0.89,1.162,0.528,2.994,1.88,2.502
	c4.239-1.42,8.846-2.502,13.7-3.274c-1.335,3.513-2.443,6.502-3.549,8.407c-3.43,1.988-5.047,4.789-8.911,6.436
	c-6.375,2.556-14.743,2.036-21.347,3.735c-1.05,0.255-1.186,1.968-0.073,2.255c6.056,1.462,12.743,0.029,18.619-1.954
	c3.082-0.989,7.43-1.737,9.793-3.971c1.696-1.613,3.338-1.963,4.936-1.791c-0.845,1.591-1.62,3.511-2.777,6.193
	c-2.628,6.002-16.382,6.572-21.254,11.639c-1.413,1.518-2.436,2.733-3.491,3.768c-2.5,0.597-5.06,1.423-7.605,2.599
	c-8.361,3.805-7.347,12.407-14.254,18.979c-7.63,7.281-9.756,16.901-12.407,26.558c-1.267,0.709-2.609,1.442-3.961,2.163
	c-5.691,3.001-6.914,6.411-10.326,11.734c-0.802,1.255,0.904,2.524,1.985,1.573c3.717-3.103,6.789-6.258,10.4-9.081
	c-2.497,7.508-5.106,15.644-5.437,23.703c-5.011,0.916-11.483,4.277-12.984,5.722c-2.804,2.541-4.407,7.951-5.739,12.085
	c-2.378,1.371-4.772,2.643-7.303,3.857c-0.494,0.253-0.373,1.255,0.309,1.184c1.866-0.141,3.616-0.21,5.323-0.241
	c-1.79,4.76-4.046,9.532-5.162,14.57l0.051,0.314c-2.161,1.347-4.363,2.765-6.587,4.35c-4.918,3.391-7.152,7.308-5.508,12.921
	c0.509,1.846,3.325,3.121,4.794,1.337c6.512-8.019,14.911-12.584,22.188-18.792c-0.765,1.917-1.513,3.917-2.17,5.883
	c-1.062,2.711-2.049,5.459-3.094,8.292l-0.56,0.12c-2.468,0.56-5.588,1.289-7.459,3.118c-4.007,3.985-6.19,9.442-12.451,10.682
	c-4.187,0.801-6.867,1.457-10.519,3.547c-0.667,0.397-0.451,1.374,0.336,1.401c8.217,0.139,18.66-0.716,22.75-9.332
	c1.188-2.736,3.459-3.744,5.946-4.339c-0.562,1.494-1.176,3.06-1.71,4.577c-3.608,4.419-8.066,8.185-13.43,13.191
	c-4.802,4.429-5.91,4.835-7.474,11.454c-4.348,18.168-12.937,24.757-10.602,44.151c0.819,6.657,6.039,10.918,11.652,14.007
	c0.046,2.799,1.184,5.537,2.794,8.292c-1.362,2.012-2.518,4.18-3.335,6.482c-3.148,8.402-6.453,18.538-5.584,27.6
	c0.107,1.615,2.702,2.383,3.092,0.502c2.282-10.358,2.399-21.951,7.968-31.249c2.244,3.237,4.695,6.477,6.061,9.544
	c-0.714,3.484-1.6,6.811-1.698,10.215c-0.275,8.972-0.86,24.377-6.786,31.42c-0.397,0.421-0.068,1.325,0.607,1.074
	c6.317-2.036,11.8-5.678,15.254-10.809c-0.227,1.954-0.287,3.834,0.141,5.586c0.499,1.834,0.885,3.547,1.262,5.237
	c-0.648,0.59-1.301,1.155-2.012,1.659c-1.607,1.228-5.478,3.101-6.648,5.016c-1.099,1.686-0.875,3.642-0.592,5.535
	c0.694,4.333-1.735,7.342-3.158,11.043c-0.462,1.145,1.075,1.885,1.908,1.174c2.163-1.827,5.125-5.812,5.447-8.635
	c0.456-3.823,0.495-6.49,4.002-8.928c0.616-0.47,1.286-0.974,2.042-1.469c1.026,6.699,0.896,12.719-0.685,21.242
	c-2.132,11.286-5.7,26.367,1.14,36.506l0.258,0.663c2.845,5.23,6.842,10.234,4.852,16.599l0.353,0.168
	c1.518-2.95,1.449-5.944,1.659-9.247c0.098-1.181-0.214-2.451-0.809-3.537c-2.353-4.336,1.001-6.367,4.095-8.592
	c2.848-2.163,5.891-4.439,6.207-8.236c0.046-0.617,0.078-1.23,0.095-1.881l0.178,0.651c3.172,11.793,3.812,26.102,12.053,34.504
	c-2.134,3.603-2.999,7.761-1.8,12.541c0.952,3.9,3.167,1.625,0.904,5.781c-0.667,1.062-1.072,2.326-1.089,3.629
	c-0.304,2.809-0.114,5.016,1.306,7.591c1.766,3.189,8.521,6.051,3.83,10.406c-0.789,0.651-0.88,1.951-0.901,2.833
	c-0.066,3.703,3.539,7.342,3.454,11.695c-0.007,0.47,0.704,0.643,0.841,0.124c0.287-1.074,1.372-14.704-0.005-13.547
	c3.148-2.587,2.69-5.7,2.334-9.476c-0.422-4.392,6.938-6.497,9.369-10.787c1.832-3.182,1.678-6.921,0.409-10.314
	c4.495,3.001,8.144,6.643,11.418,10.667c0.012,2.122-0.302,4.283-0.68,6.187c-0.546,2.339-1.42,5.435-0.86,7.837
	c1.676,6.507,9.971,10.119,13.615,15.569c0.244,0.473,0.653,0.955,1.016,1.476c0.2,0.639,0.358,1.328,0.585,1.908
	c0.366,0.908,0.753,1.841,1.16,2.794c3.659-0.268,7.318-0.487,10.974-0.662C856.181,639.171,854.88,638.328,853.633,637.415z
	 M1269.315,619.59c-1.316,0.466-2.514,1.152-3.64,1.849c0.292-1.834,0.356-3.666,0.19-5.476c2.129-1.891,4.377-3.742,6.609-5.462
	c0.451,0.085,0.882,0.134,1.338,0.234C1272.423,613.795,1272.396,618.389,1269.315,619.59z M1275.963,608.011l-0.178-0.073
	l1.15-0.804L1275.963,608.011z M1354.352,496.746c0.349-0.807,0.57-1.664,0.697-2.519c0.765,3.849,0.723,7.744-1.142,12.192
	C1354.549,502.802,1354.659,499.667,1354.352,496.746z M1353,372.108c-0.434-2.57-0.752-5.164-1.055-7.771
	c2.129,2.853,4.109,5.727,4.797,9.6c0.122,0.436,0.2,1.026,0.331,1.715c-0.784,1.905-1.751,3.771-2.767,5.722
	C1353.955,378.238,1353.521,375.127,1353,372.108z M1355.862,401.005c-0.341-5.754-0.743-11.569-1.34-17.3
	c1.038-1.856,2.024-3.625,2.953-5.481c0.592,4.56,1.267,10.689,0.884,13.259C1357.879,394.785,1356.966,397.945,1355.862,401.005z
	 M1360.422,442.985c-1.077,2.663,1.654,7.349,0.322,9.31l-1.033,1.291c0.373-3.15,0.524-6.322,0.024-9.822
	c-1.116-9.481-2.336-18.775-2.972-28.28l0.405-0.76C1361.126,423.551,1363.397,435.463,1360.422,442.985z M1351.1,332.852
	c0.94,4.838,1.883,9.715,1.968,14.901c-0.027,0.568,0.831,0.57,0.882,0.003c0.161-1.41,0.282-2.833,0.356-4.258
	c0.185,1.993,0.412,3.922,1.186,5.396c2.356,4.047,3.579,7.751,4.097,11.203c-2.2-2.791-4.991-4.741-8.526-5.218
	c-0.674-8.87-1.413-17.664-3.69-26.367C1348.683,329.841,1349.938,331.293,1351.1,332.852z M1344.274,313.04
	c0.073,4.102,4.407,7.201,5.179,11.145c-1.308-0.76-2.658-1.428-4.071-1.903c-2.94-7.919-7.177-15.444-10.553-23.269
	C1339.616,302.74,1343.975,306.694,1344.274,313.04z M1295.907,590.845c4.816-5.852,7.956-12.334,10.662-18.962
	c-1.376,6.112-4.986,11.761-5.413,18.77c-0.526,9.216-7.776,14.614-15.861,16.599c0.689-2.402,0.872-5.186,1.321-7.418
	C1289.848,597.151,1293.068,594.216,1295.907,590.845z M757.741,438.863l-0.088-0.348l0.314,0.146L757.741,438.863z M761.768,447.15
	c-1.021-1.403-1.898-2.901-2.565-4.411c1.287-1.888,2.563-3.84,3.846-5.756c0,0.545-0.007,1.038,0.022,1.617
	c-0.952,3.99,0.181,6.394,0.205,10.809C762.871,448.698,762.389,448.032,761.768,447.15z M764.213,382.74
	c-0.606,8.285-1.003,16.621-1.171,24.967c-0.176,5.561-0.265,11.026-0.198,16.587c-0.083,2.592,0.005,5.15,0.093,7.671
	c-0.77,1.096-1.552,2.122-2.314,3.179c-1.203-1.739-2.307-3.405-3.264-5.108c0.275-1.929,0.772-3.895,1.43-5.919
	c3.218-9.922,0.09-20.977,1.766-31.432c0.709-4.39,2.146-8.621,3.949-12.609C764.418,380.954,764.24,381.836,764.213,382.74z
	 M764.852,376.744c-2.78,4.794-4.979,9.783-6.346,15.318c-2.655,10.826-0.653,22.253-3.769,32.875
	c-9.337-20.792-2.502-38.908,11.279-54.509C765.57,372.525,765.134,374.635,764.852,376.744z M779.704,534.022
	c0.551-4.307,1.097-8.48,1.61-12.735c0.836,2.762,1.739,5.564,2.548,8.365C782.138,530.986,780.783,532.431,779.704,534.022z
	 M787.755,309.247c-5.342,8.541-12.066,13.157-19.391,17.844c1.52-2.348,1.856-5.242,3.486-7.881
	c1.065-1.734,1.968-3.554,2.848-5.386c3.05-0.426,6.071-1.337,9.062-3.9c1.649-1.418,3.067-1.849,4.356-1.725L787.755,309.247z
	 M790.841,301.388c-1.659-0.221-3.325-0.2-4.896,0.037c-2.826,0.489-4.952,1.98-7.064,3.591c2.375-4.156,5.783-6.451,10.246-8.431
	c0.658-0.241,1.257-0.431,1.905-0.551c0.061,0.88,0.129,1.786,0.251,2.69l0.407,0.641
	C791.412,300.051,791.095,300.738,790.841,301.388z M1134.432,431.143c-1.118-3.001-1.347-6.445,1.493-11.661
	c4.231-7.698-10.672-12.453-4.139-22.47c2.633-4.01,3.41-8.341,2.779-12.606c0.996,0.083,2.044,0.171,3.216,0.297
	c5.442,0.589,8.161,2.689,9.671,5.437c-1.099,3.6-1.749,7.323-0.543,10.241c3.591,8.694,9.137,14.49,2.304,24.818
	c-1.596,2.409-3.386,4.745-4.426,7.187C1140.673,432.259,1137.221,431.762,1134.432,431.143z M1155.382,432.486
	c0.604-1.272,1.418-2.602,2.478-4.025c2.068-2.738,5.783-6.75,5.914-9.792c0.163-2.495,0.034-5.052-0.239-7.63
	c2.826,0.577,5.116,1.634,7.047,2.996c-0.314,3.679-0.434,7.408-0.482,11.128c-0.036,2.563,0.161,5.089,0.494,7.588
	C1165.245,432.598,1159.998,432.527,1155.382,432.486z M1189.844,432.588c1.092,0.507,2.278,1.008,3.576,1.571
	c-1.152-0.131-2.348-0.253-3.579-0.365L1189.844,432.588z M1290.07,221.284l0.458,0.446c-0.989-0.051-1.917,0.022-2.814,0.044
	c-1.06-2.041-2.049-4.095-2.923-6.231C1286.752,217.608,1288.584,219.567,1290.07,221.284z M1230.419,172.691
	c0.604,1.471,1.347,2.969,2.219,4.377c-2.926-1.6-5.807-3.345-8.475-5.298c-1.963-1.33-3.737-2.88-5.488-4.404
	C1223.303,168.371,1227.849,166.958,1230.419,172.691z M1201.423,148.023l0.219,0.122c-0.68,0.024-1.296-0.024-2.017,0.068
	l-0.738,0.356c-0.685-0.575-1.391-1.194-2.2-1.72C1198.37,146.854,1199.998,147.073,1201.423,148.023z M1055.699,104.345
	c-0.504,0.142-0.945,0.19-1.422,0.351l-0.339-0.236C1054.535,104.438,1055.114,104.367,1055.699,104.345z M1044.14,106.052
	c1.715-0.068,3.389-0.017,4.943,0.107c-5.306,1.605-10.29,3.584-14.811,5.973c-2.484,1.352-4.733,3.079-6.94,4.906
	c-1.552,0.141-3.006,0.373-4.514,0.509C1029.612,112.981,1035.963,107.982,1044.14,106.052z M993.958,114.035
	c7.778-0.312,15.786-4.448,23.479-5.766c0.855-0.19,1.796-0.327,2.757-0.443c-2.263,2.489-3.941,5.527-4.938,8.991
	c-4.989-1.289-10.711-0.833-15.593,0.465c-5.328,1.32-10.59-0.711-15.946-0.772C986.976,115.112,990.296,114.196,993.958,114.035z
	 M971.483,123.538c4.621,1.578,9.422,2.658,14.443,4.1c-2.146,0.801-4.385,1.654-6.546,2.475c-5.705-0.678-11.53-0.029-16.919,2.699
	c-4.141,2.078-8.209,3.067-12.375,3.747c-0.658-1.045-1.598-1.813-2.565-2.456C956.311,133.889,963.795,128.652,971.483,123.538z
	 M939.413,131.472l0.351,0.833l-0.816,0.041L939.413,131.472z M935.133,136.547c2.789,0.007,5.399,0.11,7.668,0.899
	c-3.159,0.373-6.353,0.721-9.617,1.425c-0.636,0.12-1.257,0.166-1.808,0.256C932.701,138.369,933.954,137.497,935.133,136.547z
	 M925.253,144.559c5.084-0.417,10.253-1.642,15.727-1.225c-3.422,1.06-6.95,2.095-10.343,3.252c-1.866-0.029-3.74-0.056-5.581-0.105
	C925.082,145.765,925.108,145.102,925.253,144.559z M876.736,160.225c0.733-0.572,12.94-0.755,15.211-0.848
	c8.092-0.336,14.253-5.72,21.678-7.674l0.853,0.833c-2.563,1.043-5.123,2.251-7.559,3.523c-6.548,3.41-12.567,7.457-18.251,12.031
	c-5.832-0.061-12.548-0.124-19.118,0.572C871.494,165.46,873.808,162.568,876.736,160.225z M865.029,181.343
	c0.185-1.164,0.565-2.351,0.845-3.586c4.239-0.516,8.64-0.838,12.853-1.111c-2.029,1.966-4.047,3.959-6.046,5.973
	c-1.277,0.258-2.531,0.682-3.749,1.32c-1.569,0.829-2.711,1.567-3.808,2.275c-0.558-0.193-0.999-0.29-1.53-0.407
	C864.315,184.736,864.727,183.436,865.029,181.343z M847.226,210.144l-1.104,1.191c-0.477,0.046-0.784,0.119-1.333,0.141
	C845.577,210.973,846.371,210.503,847.226,210.144z M799.935,280.614c0.75-5.535,1.335-11.142,2.587-16.46l0.19-0.639
	c3.179-1.875,6.492-3.905,9.384-6.372C807.753,264.782,803.726,272.66,799.935,280.614z M817.602,245.696
	c-3.875,5.481-8.372,9.135-13.372,12.285c2.858-8.763,6.836-15.364,12.672-24.073c2.631-3.863,4.085-7.143,5.871-9.817l0.383,0.002
	c4.643-1.135,11.754-1.591,14.821-5.912c0.728-1.025,1.503-1.89,2.239-2.721c0.894-0.144,1.762-0.287,2.616-0.38
	c-3.172,3.635-6.229,7.284-9.286,10.931c-1.316,0.614-2.638,1.188-3.897,1.922C823.214,231.596,821.48,240.168,817.602,245.696z
	 M843.409,628.199c-5.087-5.406-9.679-11.758-8.548-16.017c0.241-0.782,0.343-1.542,0.524-2.446
	c2.791,4.024,5.44,8.239,8.302,12.565C843.35,624.133,843.299,626.123,843.409,628.199z"/>
<path style="fill:#FDD292;" d="M1517.88,1444.866c17.824,0,30.075,0,30.122,0c55.108,0,111.061-38.913,135.289-92.286h-136.702
	L1517.88,1444.866z"/>
<path style="fill:#FDD292;" d="M1251.142,639.502c-1.875-0.034-3.751-0.053-5.627-0.053H1229.4
	c-0.753,1.289-1.523,2.458-2.309,3.496c-4.638,6.119-9.176,11.897-13.622,17.359c1.498,1.698,2.948,3.42,4.339,5.169
	c15.62,19.529,24.531,42.206,24.531,66.416c0,73.032-81.354,132.344-181.679,132.344c-100.323,0-181.677-59.312-181.677-132.344
	c0-24.21,8.911-46.887,24.528-66.416c1.393-1.749,2.843-3.471,4.341-5.169c-4.448-5.462-8.984-11.24-13.622-17.359
	c-0.787-1.038-1.557-2.207-2.312-3.496h-12.743c-6.918,0-13.846,0.153-20.782,0.472l-0.889,0.042
	c-3.657,0.176-7.315,0.395-10.974,0.662c-4.794,0.351-9.591,0.78-14.385,1.296c-28.434,3.138-56.582,9.469-83.31,20.387
	c-15.41,6.273-30.253,14.053-44.411,23.644c-70.835,47.975-137.85,104.64-170.425,189.231
	c-42.46,110.247-63.89,225.333-99.56,337.278c-35.983,112.917,37.156,232.405,142.259,232.405h26.74l-33.856-108.834l21.759-14.528
	h680.856V697.209v-43.478h67.091C1310.73,645.029,1281.183,640.055,1251.142,639.502z"/>
<path style="fill:#CB766A;" d="M1060.659,750.521c-46.246,0-90.435-13.605-152.807-90.218c-1.498,1.698-2.948,3.42-4.341,5.169
	c8.648,74.647,75.707,132.749,157.149,132.749c81.441,0,148.503-58.102,157.148-132.749c-1.391-1.749-2.84-3.471-4.339-5.169
	C1151.094,736.917,1106.907,750.521,1060.659,750.521z"/>
<path style="fill:#CB766A;" d="M862.349,501.406l-0.626-2.687c-0.414-1.839-0.785-3.73-1.338-5.618
	c-1.213-3.737-2.351-7.666-5.649-11.196c-1.625-1.735-4.215-3.347-7.325-3.62c-1.583-0.249-3.608,0.321-4.828,1.247
	c-1.166,0.972-1.778,2.053-2.134,3.077c-0.687,2.071-0.74,4.034-0.59,5.97c0.161,1.927,0.57,3.835,1.299,5.64
	c0.071-3.727,0.58-7.637,2.348-10.682c0.424-0.745,1.013-1.333,1.552-1.649c0.59-0.195,0.953-0.321,1.659-0.097
	c1.471,0.383,2.799,1.233,3.766,2.575c1.915,2.711,2.977,6.263,3.718,9.803l2.212,10.947c0.331,1.71,0.439,3.294,0.178,4.843
	c-0.219,1.573-0.918,3.025-1.705,4.872c-1.464,3.522-3.257,7.469-3.106,11.71c0.085,4.01,1.048,7.861,2.589,11.542
	c0.787,1.769,1.788,3.734,3.242,5.25c1.34,1.557,2.802,2.954,3.53,4.769c-0.022-1.927-1.055-3.791-1.917-5.496
	c-0.933-1.705-1.357-3.34-1.7-5.201c-0.726-3.584-0.909-7.253-0.565-10.755c0.422-3.323,1.973-6.563,3.81-10.039
	c0.875-1.661,1.866-3.754,2.261-5.924c0.433-2.173,0.314-4.382-0.02-6.377C862.827,503.309,862.59,502.344,862.349,501.406z"/>
<path style="fill:#CB766A;" d="M1258.311,504.31c-0.334,1.995-0.456,4.204-0.022,6.377c0.395,2.171,1.387,4.263,2.261,5.924
	c1.837,3.476,3.389,6.716,3.81,10.039c0.344,3.503,0.161,7.172-0.562,10.755c-0.346,1.861-0.77,3.495-1.703,5.201
	c-0.862,1.705-1.895,3.569-1.917,5.496c0.728-1.815,2.19-3.213,3.53-4.769c1.454-1.516,2.456-3.481,3.242-5.25
	c1.542-3.681,2.504-7.532,2.592-11.542c0.149-4.241-1.642-8.187-3.108-11.71c-0.785-1.847-1.484-3.299-1.705-4.872
	c-0.261-1.549-0.151-3.133,0.18-4.843l2.212-10.947c0.74-3.54,1.8-7.091,3.717-9.803c0.967-1.342,2.294-2.192,3.764-2.575
	c0.707-0.224,1.069-0.097,1.661,0.097c0.538,0.317,1.125,0.904,1.549,1.649c1.771,3.045,2.278,6.955,2.348,10.682
	c0.731-1.805,1.138-3.712,1.301-5.64c0.151-1.936,0.097-3.9-0.59-5.97c-0.356-1.023-0.967-2.105-2.136-3.077
	c-1.22-0.926-3.245-1.496-4.828-1.247c-3.108,0.273-5.7,1.885-7.323,3.62c-3.298,3.53-4.436,7.459-5.649,11.196
	c-0.555,1.888-0.926,3.778-1.339,5.618l-0.626,2.687C1258.728,502.344,1258.492,503.309,1258.311,504.31z"/>
<path style="fill:#CB766A;" d="M1071.47,704.617l-11.696,0.928c-1.941,0.127-3.888,0.319-5.827,0.395l-2.909,0.161l-2.901,0.066
	c-0.974,0.056-1.924-0.024-2.889-0.036c-0.977,0.019-1.905-0.132-2.865-0.219c-0.933-0.139-1.871-0.319-2.726-0.687l-0.594-0.339
	l-0.499-0.453c-0.297-0.331-0.463-0.853-0.285-1.345c-0.304,0.419-0.302,1.057-0.058,1.555l0.468,0.682l0.599,0.555
	c0.87,0.636,1.849,0.996,2.818,1.347c1.959,0.575,3.963,0.923,5.956,1.084c3.997,0.414,7.965,0.212,11.919-0.014
	c1.973-0.168,3.934-0.4,5.9-0.617c1.961-0.253,3.907-0.57,5.849-0.923c3.895-0.643,7.737-1.61,11.544-2.724
	C1079.297,704.008,1075.387,704.381,1071.47,704.617z"/>
<path style="fill:#CB766A;" d="M1040.196,601.271l-0.755,2.999c-0.314,1.074-0.646,2.397-0.699,3.552
	c-0.168,2.392,0.127,4.796,0.909,7.001c1.61,4.441,4.994,7.698,8.689,9.74c-3.135-2.904-5.737-6.421-6.551-10.406
	c-0.433-1.964-0.451-3.995-0.09-5.917c0.192-1.011,0.448-1.791,0.818-2.77l1.111-3.24c2.436-8.626,3.386-17.359,4.231-26.075
	c0.709-8.726,1.111-17.454,1.148-26.185c0.117-8.728-0.277-17.457-0.668-26.175c-1.491,8.648-2.083,17.345-2.867,26.003
	c-0.76,8.66-1.354,17.318-2.144,25.934c-0.331,4.314-0.745,8.617-1.257,12.884C1041.663,592.906,1040.964,597.122,1040.196,601.271z
	"/>
<path style="fill:#CB766A;" d="M1080.125,607.826c-0.663,1.822-1.018,3.466-1.357,5.069l-0.857,4.572
	c-0.283,1.449-0.529,2.85-0.982,4.153c-0.433,1.335-1.035,2.614-2.197,4.2c1.868,0.297,3.851-0.67,5.196-2.173
	c1.378-1.511,2.1-3.423,2.451-5.274c0.346-1.866,0.319-3.737-0.044-5.52C1081.948,611.076,1081.336,609.341,1080.125,607.826z"/>
<path style="fill:#CB766A;" d="M1125.743,665.524c-0.166-2.884-1.6-5.657-3.71-7.681c-1.069-0.999-2.302-1.83-3.656-2.353
	c-1.338-0.536-2.77-0.88-4.207-0.723c2.409,1.352,4.453,2.777,6.28,4.504c-4.424,1.929-8.899,3.634-13.513,4.884
	c-4.999,1.496-10.09,2.646-15.227,3.486c-10.268,1.688-20.653,2.548-31.05,2.531c-10.395,0.024-20.782-0.841-31.052-2.524
	c-5.135-0.84-10.226-1.995-15.227-3.488c-4.611-1.252-9.089-2.958-13.508-4.889c1.825-1.727,3.871-3.152,6.28-4.504
	c-1.44-0.156-2.872,0.188-4.21,0.723c-1.355,0.524-2.587,1.354-3.656,2.353c-2.109,2.024-3.544,4.796-3.71,7.681
	c1.722-2.302,3.237-4.37,5.135-6.122c8.575,5.535,18.343,9.076,28.265,11.44c10.368,2.497,21.043,3.498,31.683,3.581
	c10.643-0.075,21.315-1.079,31.685-3.574c9.922-2.365,19.693-5.905,28.266-11.447
	C1122.505,661.154,1124.022,663.222,1125.743,665.524z"/>
<path style="fill:#39242B;" d="M930.485,531.311c0,9.6,6.448,17.381,14.407,17.381c7.956,0,14.407-7.781,14.407-17.381
	c0-9.598-6.451-17.379-14.407-17.379C936.933,513.932,930.485,521.713,930.485,531.311z"/>
<path style="fill:#39242B;" d="M981.081,485.564c7.23-1.737,12.355-12.314,11.571-26.794c0,0-6.612,4.668-20.156,5.706
	c-13.547,1.038-43.783,3.028-56.046,7.135c-12.263,4.107-31.325,23.347-34.355,33.983c0,0,14.816-22.417,38.155-22.085
	C943.593,483.837,967.269,488.882,981.081,485.564z"/>
<path style="fill:#E08E7C;" d="M936.499,622.034c24.575-0.887,43.898-15.388,43.157-32.392
	c-0.738-17.003-21.259-30.066-45.834-29.179c-24.575,0.887-43.897,15.388-43.159,32.392
	C891.404,609.858,911.925,622.92,936.499,622.034z"/>
<path style="fill:#E08E7C;" d="M1187.498,560.462c-24.575-0.887-45.096,12.176-45.836,29.179
	c-0.738,17.004,18.582,31.505,43.157,32.392c24.577,0.887,45.098-12.176,45.836-29.179
	C1231.396,575.851,1212.073,561.349,1187.498,560.462z"/>
<polygon style="fill:#637595;" points="708.767,1783.467 1041.904,1783.467 1181.957,1783.467 1412.553,1783.467 1494.27,1520.771 
	1517.88,1444.866 1546.589,1352.58 1474.799,1352.58 1271.461,1488.042 1324.883,1352.58 1272.197,1352.58 1272.197,1336.032 
	569.582,1336.032 603.438,1444.866 633.011,1539.942 "/>
<polygon style="fill:#A2A8BD;" points="591.341,1321.503 569.582,1336.032 1272.197,1336.032 1272.197,1321.503 "/>
<polygon style="fill:#637595;" points="1339.287,653.731 1272.197,653.731 1272.197,697.209 1821.612,697.209 1821.612,653.731 "/>
<path style="fill:#FFEDD5;" d="M1306.496,682.717c4.003,0,7.247-3.245,7.247-7.247c0-4.003-3.245-7.245-7.247-7.245
	c-4,0-7.245,3.242-7.245,7.245C1299.251,679.472,1302.496,682.717,1306.496,682.717z"/>
<path style="fill:#FFEDD5;" d="M1347.022,668.225c-4.003,0-7.247,3.242-7.247,7.245c0,4.002,3.244,7.247,7.247,7.247
	c4,0,7.245-3.245,7.245-7.247C1354.266,671.467,1351.021,668.225,1347.022,668.225z"/>
<path style="fill:#FFEDD5;" d="M1380.3,675.47c0,4.002,3.245,7.247,7.245,7.247c4.003,0,7.248-3.245,7.248-7.247
	c0-4.003-3.245-7.245-7.248-7.245C1383.545,668.225,1380.3,671.467,1380.3,675.47z"/>
<rect x="1699.343" y="843.702" style="fill:#FFFFFF;" width="101.271" height="9.99"/>
<rect x="1589.19" y="862.735" style="fill:#FFFFFF;" width="191.533" height="9.993"/>
<rect x="1589.19" y="843.7" style="fill:#FFFFFF;" width="88.092" height="9.993"/>
<rect x="1589.19" y="804.597" style="fill:#FFFFFF;" width="101.269" height="9.992"/>
<rect x="1589.19" y="823.63" style="fill:#FFFFFF;" width="197.192" height="9.992"/>
<rect x="1712.519" y="804.597" style="fill:#FFFFFF;" width="88.094" height="9.992"/>
<rect x="1699.343" y="763.891" style="fill:#FFFFFF;" width="101.271" height="9.993"/>
<rect x="1589.19" y="782.924" style="fill:#FFFFFF;" width="191.533" height="9.993"/>
<rect x="1589.19" y="763.891" style="fill:#FFFFFF;" width="88.092" height="9.993"/>
<rect x="1589.19" y="724.787" style="fill:#FFFFFF;" width="101.269" height="9.99"/>
<rect x="1589.19" y="743.82" style="fill:#FFFFFF;" width="197.192" height="9.992"/>
<rect x="1712.519" y="724.787" style="fill:#FFFFFF;" width="88.094" height="9.99"/>
<rect x="1293.193" y="907.302" style="fill:#FFFFFF;" width="243.05" height="11.547"/>
<rect x="1293.193" y="929.297" style="fill:#FFFFFF;" width="172.898" height="11.547"/>
<rect x="1589.19" y="907.302" style="fill:#FFFFFF;" width="211.423" height="11.547"/>
<rect x="1293.195" y="969.445" style="fill:#FFFFFF;" width="243.048" height="11.547"/>
<rect x="1293.195" y="991.44" style="fill:#FFFFFF;" width="243.048" height="11.547"/>
<rect x="1589.19" y="969.445" style="fill:#FFFFFF;" width="211.423" height="11.547"/>
<rect x="1293.195" y="1013.574" style="fill:#FFFFFF;" width="243.048" height="11.547"/>
<rect x="1293.195" y="1035.569" style="fill:#FFFFFF;" width="243.048" height="11.547"/>
<rect x="1589.19" y="1013.574" style="fill:#FFFFFF;" width="211.423" height="11.547"/>
<rect x="1293.195" y="1057.7" style="fill:#FFFFFF;" width="243.048" height="11.547"/>
<rect x="1293.195" y="1079.695" style="fill:#FFFFFF;" width="172.898" height="11.547"/>
<rect x="1589.19" y="1057.7" style="fill:#FFFFFF;" width="211.423" height="11.547"/>
<path style="fill:#FFFFFF;" d="M1293.195,1308.4h378.934v-190.349h-378.934V1308.4z M1442.502,1173.753l80.321,39.471
	l-80.321,39.473V1173.753z"/>
<path style="fill:#FFFFFF;" d="M1293.195,724.787v147.941l57.208-94.92l66.804,61.89l43.588-46.129l43.824,79.159V724.787H1293.195z
	 M1415.43,800.407c-11.973,0-21.676-9.496-21.676-21.211c0-11.713,9.703-21.208,21.676-21.208c11.971,0,21.673,9.496,21.673,21.208
	C1437.104,790.911,1427.401,800.407,1415.43,800.407z"/>
<path style="fill:#FFEDD5;" d="M1415.43,757.988c-11.973,0-21.676,9.496-21.676,21.208c0,11.715,9.703,21.211,21.676,21.211
	c11.971,0,21.673-9.496,21.673-21.211C1437.104,767.484,1427.401,757.988,1415.43,757.988z"/>
<polygon style="fill:#FFEDD5;" points="1442.502,1173.753 1442.502,1252.698 1522.823,1213.224 "/>
<path style="fill:#FFEDD5;" d="M827.499,1128.691L827.499,1128.691c0-57.2-46.37-103.57-103.57-103.57h-65.568
	c-57.201,0-103.57,46.37-103.57,103.57c0,57.203,46.37,103.573,103.57,103.573h31.741l116.756,48.501l-37.771-58.974
	C803.631,1205,827.499,1169.68,827.499,1128.691z"/>
<path style="fill:#EF4444;" d="M626.407,1143.911c15.342,14.57,61.254,53.817,61.254,53.817s43.819-41.568,58.384-56.915
	c15.681-16.516,15.004-42.614-1.51-58.299c-16.521-15.671-42.616-14.994-58.299,1.513l-1.486,1.564l-1.556-1.479
	c-16.514-15.679-42.604-15.006-58.294,1.508C609.216,1102.131,609.896,1128.233,626.407,1143.911z"/>
<path style="fill:#C99A60;" d="M724.07,1007.482c-0.851,0-1.676-0.424-2.159-1.196c-0.743-1.191-0.38-2.755,0.811-3.501
	c8.388-5.235,16.831-20.172,18.772-30.029c0.273-1.379,1.608-2.271,2.984-2.003c1.376,0.273,2.272,1.608,2.002,2.984
	c-2.195,11.13-11.184,27.189-21.069,33.359C724.993,1007.357,724.528,1007.482,724.07,1007.482z"/>
<path style="fill:#C99A60;" d="M715.919,1021.971l-0.451-0.041c-1.383-0.246-2.299-1.567-2.053-2.95
	c2.271-12.633,3.669-25.634,5.018-38.204l0.845-7.805c0.154-1.395,1.415-2.394,2.804-2.248c1.393,0.153,2.402,1.408,2.249,2.804
	l-0.848,7.793c-1.359,12.658-2.762,25.749-5.065,38.56C718.197,1021.107,717.125,1021.971,715.919,1021.971z"/>
<path style="fill:#C99A60;" d="M677.435,1254.235c-0.806,0-1.598-0.383-2.09-1.094c-2.288-3.301-6.098-9.715-5.883-15.576
	c0.048-1.403,1.293-2.55,2.631-2.446c1.401,0.049,2.497,1.228,2.446,2.629c-0.114,3.162,1.749,7.834,4.984,12.499
	c0.799,1.152,0.511,2.735-0.643,3.537C678.441,1254.088,677.934,1254.235,677.435,1254.235z"/>
<path style="fill:#C99A60;" d="M677.89,1266.909c-0.906,0-1.781-0.484-2.239-1.335c-2.48-4.601-7.554-8.275-12.029-11.515
	l-4.774-3.532c-7.111-5.345-15.961-11.998-24-13.542c-1.379-0.266-2.28-1.598-2.017-2.974c0.268-1.376,1.601-2.273,2.974-2.017
	c9.193,1.769,18.567,8.811,26.097,14.47l4.699,3.478c4.916,3.559,10.49,7.596,13.52,13.22c0.668,1.235,0.207,2.777-1.028,3.442
	L677.89,1266.909z"/>
<path style="fill:#C99A60;" d="M730.404,1309.469c-0.487,0-0.979-0.139-1.413-0.429c-4.602-3.084-9.113-6.282-13.615-9.474
	c-10.609-7.525-21.578-15.303-33.469-21.203l-2.178-1.082c-14.533-7.225-32.618-16.217-48.696-17.627
	c-1.401-0.122-2.434-1.354-2.312-2.75c0.124-1.398,1.398-2.419,2.753-2.309c17.035,1.493,35.6,10.721,50.516,18.136l2.175,1.082
	c12.246,6.073,23.381,13.971,34.151,21.608c4.466,3.167,8.938,6.341,13.503,9.398c1.167,0.779,1.479,2.358,0.696,3.525
	C732.026,1309.075,731.223,1309.469,730.404,1309.469z"/>
<path style="fill:#C99A60;" d="M999.339,1315.505c-0.482,0-0.972-0.139-1.405-0.426c-20.626-13.752-49.164-21.705-74.341-28.723
	l-7.593-2.122c-19.691-5.559-35.998-16.307-51.771-26.704c-12.134-7.995-24.684-16.265-38.496-21.897
	c-1.299-0.529-1.924-2.012-1.393-3.313c0.529-1.298,2.005-1.922,3.313-1.391c14.275,5.82,27.035,14.227,39.371,22.36
	c15.449,10.181,31.425,20.711,50.355,26.051l7.579,2.122c25.542,7.121,54.496,15.188,75.795,29.388
	c1.166,0.78,1.483,2.356,0.704,3.525C1000.966,1315.109,1000.16,1315.505,999.339,1315.505z"/>
<path style="fill:#C99A60;" d="M1200.97,1287.737l-1.267-0.341c-35.844-20.697-75.229-35.754-113.319-50.319
	c-28.982-11.079-58.949-22.536-87.29-36.433c-40.735-19.975-79.639-48.645-112.505-82.911c-7.825-8.161-14.775-17.352-21.494-26.243
	c-8.241-10.901-16.76-22.173-26.837-31.403c-1.036-0.948-1.104-2.556-0.156-3.591c0.947-1.033,2.553-1.101,3.588-0.156
	c10.419,9.545,19.081,21.003,27.457,32.085c6.631,8.775,13.488,17.849,21.108,25.791c32.458,33.841,70.869,62.15,111.078,81.867
	c28.131,13.793,57.99,25.211,86.866,36.248c38.277,14.635,77.856,29.766,114.043,50.664c1.215,0.702,1.634,2.254,0.93,3.469
	C1202.702,1287.282,1201.847,1287.737,1200.97,1287.737z"/>
<path style="fill:#C99A60;" d="M1001.756,911.044l-1.303-0.363c-9.598-5.769-19.876-11.418-30.757-17.401
	c-53.359-29.34-113.841-62.594-123.78-126.854c-0.214-1.388,0.736-2.687,2.119-2.901c1.386-0.195,2.687,0.736,2.902,2.122
	c9.559,61.792,68.874,94.406,121.207,123.18c10.925,6.007,21.245,11.681,30.923,17.498c1.203,0.724,1.594,2.285,0.87,3.486
	C1003.461,910.603,1002.621,911.044,1001.756,911.044z"/>
<path style="fill:#7A676C;" d="M522.578,1632.993c-0.699,0-1.398-0.287-1.9-0.855c-3.676-4.141-18.557-4.248-27.191-2.501
	c-1.352,0.302-2.711-0.612-2.994-1.986c-0.278-1.376,0.609-2.716,1.985-2.996c7.527-1.52,26.044-2.606,32,4.115
	c0.93,1.05,0.836,2.655-0.217,3.583C523.78,1632.784,523.178,1632.993,522.578,1632.993z"/>
<path style="fill:#7A676C;" d="M666.385,1667.646l-0.721-0.105c-9.537-2.826-19.026-6.002-28.202-9.071
	c-15.125-5.06-30.765-10.295-47.013-14.088c-17.566-4.102-32.565-6.509-45.846-7.357c-17.532-1.13-36.319,1.55-54.479,4.129
	c-5.747,0.816-11.442,1.625-17.042,2.307c-1.418,0.193-2.66-0.824-2.828-2.212c-0.171-1.394,0.821-2.66,2.214-2.828
	c5.566-0.682,11.23-1.488,16.943-2.299c18.409-2.614,37.437-5.328,55.515-4.166c13.569,0.865,28.837,3.311,46.682,7.479
	c16.477,3.849,32.233,9.12,47.468,14.219c9.135,3.055,18.58,6.217,28.032,9.016c1.344,0.4,2.112,1.813,1.715,3.157
	C668.495,1666.93,667.481,1667.646,666.385,1667.646z"/>
<path style="fill:#7A676C;" d="M1597.032,1611.464l-1.089-0.246c-1.269-0.602-1.807-2.117-1.203-3.386
	c5.057-10.638,23.788-12.287,31.559-11.391c1.396,0.156,2.395,1.415,2.236,2.811c-0.158,1.389-1.374,2.416-2.811,2.234
	c-7.613-0.862-22.93,1.242-26.395,8.531C1598.893,1610.931,1597.982,1611.464,1597.032,1611.464z"/>
<path style="fill:#7A676C;" d="M1458.494,1686.623c-0.843,0-1.671-0.421-2.153-1.186c-0.748-1.189-0.39-2.758,0.797-3.506
	c9.033-5.683,18.019-11.89,26.709-17.89c14.516-10.024,29.527-20.39,45.442-28.835c17.254-9.159,32.153-15.381,45.547-19.021
	c17.907-4.87,37.193-4.327,55.853-3.788c5.754,0.163,11.459,0.326,17.052,0.326c1.405,0,2.54,1.135,2.54,2.541
	c0,1.403-1.135,2.538-2.54,2.538c-5.642,0-11.396-0.163-17.196-0.326c-18.287-0.519-37.198-1.055-54.375,3.613
	c-13.026,3.54-27.584,9.625-44.502,18.604c-15.651,8.309-30.54,18.587-44.935,28.528c-8.733,6.032-17.763,12.268-26.887,18.012
	C1459.425,1686.496,1458.955,1686.623,1458.494,1686.623z"/>
<path style="fill:#7A676C;" d="M1209.372,1818.758c-0.892,0-1.823-0.031-2.789-0.1c-1.401-0.098-2.458-1.311-2.361-2.712
	c0.1-1.4,1.318-2.402,2.712-2.358c12.263,0.845,16.758-4.772,20.696-9.742c1.861-2.343,3.618-4.56,6.01-5.861
	c7.172-3.907,11.24-2.01,15.951,0.183c1.727,0.804,3.51,1.637,5.727,2.336c12.261,3.873,21.958-0.141,38.034-6.799
	c3.564-1.476,7.396-3.062,11.585-4.694c1.309-0.514,2.78,0.136,3.291,1.444c0.507,1.309-0.136,2.78-1.444,3.289
	c-4.156,1.617-7.956,3.194-11.486,4.655c-16.553,6.855-27.486,11.384-41.515,6.948c-2.528-0.797-4.553-1.739-6.339-2.572
	c-4.297-2-6.451-3.011-11.374-0.329c-1.486,0.809-2.865,2.548-4.458,4.56C1227.637,1812.015,1222.29,1818.758,1209.372,1818.758z"/>
<path style="fill:#404D68;" d="M1204.424,1760.315c-0.738,0-1.467-0.316-1.969-0.93L914.933,1408.55
	c-0.886-1.084-0.728-2.687,0.356-3.574c1.082-0.891,2.689-0.73,3.574,0.353l287.522,350.835c0.89,1.084,0.731,2.687-0.353,3.576
	C1205.559,1760.127,1204.989,1760.315,1204.424,1760.315z"/>
<path style="fill:#404D68;" d="M1330.062,1697.181c-0.738,0-1.467-0.317-1.969-0.931l-184.042-224.565
	c-0.887-1.084-0.729-2.687,0.356-3.574c1.079-0.896,2.687-0.733,3.574,0.353l184.042,224.566c0.89,1.084,0.731,2.687-0.353,3.576
	C1331.197,1696.993,1330.627,1697.181,1330.062,1697.181z"/>
<path style="fill:#404D68;" d="M975.305,1697.181c-0.738,0-1.467-0.317-1.969-0.931l-184.042-224.565
	c-0.889-1.084-0.728-2.687,0.356-3.574c1.082-0.896,2.685-0.733,3.574,0.353l184.042,224.566c0.89,1.084,0.731,2.687-0.353,3.576
	C976.44,1696.993,975.87,1697.181,975.305,1697.181z"/>
</svg>
