<?xml version="1.0" standalone="no"?>
<svg viewBox="0 0 200 200" xmlns="http://www.w3.org/2000/svg">
  <path fill="#ff685a" d="M45.2,-79.7C58,-71,67.4,-57.6,75.8,-43.6C84.2,-29.5,91.7,-14.8,92.8,0.6C93.9,16,88.6,32.1,79.6,45C70.5,58,57.7,67.9,43.8,75.8C29.9,83.8,15,89.8,-0.5,90.7C-16,91.7,-32.1,87.5,-46.2,79.7C-60.3,71.9,-72.5,60.4,-80.4,46.5C-88.4,32.6,-92.2,16.3,-92.3,-0.1C-92.4,-16.4,-88.8,-32.8,-80.4,-45.9C-72,-59.1,-58.7,-68.9,-44.5,-76.9C-30.3,-84.8,-15.2,-90.9,0.5,-91.8C16.2,-92.7,32.4,-88.5,45.2,-79.7Z" transform="translate(100 100)" />
</svg>
